<?xml version="1.0" standalone="no"?>
<!DOCTYPE svg PUBLIC "-//W3C//DTD SVG 20010904//EN"
 "http://www.w3.org/TR/2001/REC-SVG-20010904/DTD/svg10.dtd">
<svg version="1.0" xmlns="http://www.w3.org/2000/svg"
 width="82.000000pt" height="90.000000pt" viewBox="0 0 82.000000 90.000000"
 preserveAspectRatio="xMidYMid meet">
<metadata>
Created by potrace 1.10, written by Peter Selinger 2001-2011
</metadata>
<g transform="translate(0.000000,90.000000) scale(0.100000,-0.100000)"
fill="#000000" stroke="none">
<path d="M338 798 c-70 -9 -141 -44 -188 -92 l-34 -36 33 -28 33 -28 -51 -24
c-76 -35 -77 -40 -32 -98 26 -33 36 -52 28 -55 -9 -4 -9 -6 1 -6 7 -1 15 6 18
14 7 18 66 35 159 45 l70 8 -65 -1 c-36 0 -85 -7 -109 -14 -24 -7 -46 -11 -49
-8 -6 6 -6 55 1 61 12 12 156 15 212 5 66 -12 167 -57 205 -90 l25 -22 -32 16
c-47 22 -40 11 11 -19 55 -32 100 -84 87 -100 -5 -6 -11 -29 -13 -51 -3 -38
-5 -40 -46 -48 -41 -8 -44 -7 -100 43 -69 62 -176 117 -257 131 -33 6 -79 14
-103 20 -30 6 -49 6 -64 -2 -20 -11 -18 -14 34 -65 47 -47 57 -54 78 -46 23 9
23 9 -13 38 -21 16 -37 32 -37 37 0 10 38 9 44 -2 3 -4 28 -11 55 -15 62 -8
146 -37 191 -65 29 -19 31 -22 10 -17 l-25 6 25 -12 c14 -7 43 -26 64 -42 l39
-30 -49 -13 c-100 -26 -131 -26 -165 -2 -46 32 -190 109 -206 109 -7 0 -13 -4
-13 -8 0 -14 101 -84 169 -116 80 -38 160 -41 232 -9 25 11 71 23 102 27 31 4
60 13 64 19 8 12 12 69 13 155 0 31 4 42 15 42 29 0 27 29 -4 84 -22 38 -30
62 -26 79 8 32 -18 94 -58 135 -67 71 -172 104 -279 90z m107 -32 c43 -5 125
-49 157 -83 15 -15 34 -45 43 -66 18 -43 17 -43 -49 5 -88 63 -232 95 -354 78
-41 -6 -77 -8 -79 -6 -2 2 21 16 52 32 63 30 149 54 180 48 11 -2 34 -5 50 -8z
m-7 -103 c4 -5 25 -13 47 -17 72 -14 165 -73 165 -107 0 -10 9 -35 19 -55 16
-29 17 -42 9 -65 -5 -16 -7 -37 -4 -47 3 -9 -4 -3 -16 13 -62 85 -176 161
-278 184 -25 6 -87 11 -138 11 l-92 0 56 51 57 51 84 -4 c47 -3 88 -9 91 -15z"/>
</g>
</svg>
